PathFileType	4	(X/Y/Z)	C:\Users\86182\Documents\cortex\Trimmed_M4_L4.trc
DataRate	CameraRate	NumFrames	NumMarkers	Units	OrigDataRate	OrigDataStartFrame	OrigNumFrames
100.00	100.00	       101	2	mm	100.00	1	       901
Frame#	Time	gripper			box			
		X1	Y1	Z1	X2	Y2	Z2	

1	0.000	277.12054	150.03549	192.38550	279.47134	147.87773	57.35355	
2	0.010	277.12024	150.03535	192.38600	279.47311	147.87856	57.35631	
3	0.020	277.12061	150.03552	192.38733	279.47375	147.87944	57.35825	
4	0.030	277.12167	150.03595	192.38931	279.47296	147.88039	57.35897	
5	0.040	277.12311	150.03653	192.39157	279.47076	147.88135	57.35844	
6	0.050	277.12451	150.03705	192.39352	279.46777	147.88217	57.35707	
7	0.060	277.12540	150.03732	192.39465	279.46466	147.88272	57.35519	
8	0.070	277.12552	150.03728	192.39467	279.46201	147.88278	57.35304	
9	0.080	277.12485	150.03696	192.39363	279.45999	147.88217	57.35093	
10	0.090	277.12350	150.03653	192.39178	279.45871	147.88092	57.34934	
11	0.100	277.12173	150.03609	192.38948	279.45807	147.87927	57.34864	
12	0.110	277.11987	150.03569	192.38692	279.45810	147.87749	57.34899	
13	0.120	277.11823	150.03532	192.38437	279.45871	147.87581	57.35030	
14	0.130	277.11710	150.03502	192.38228	279.45987	147.87442	57.35234	
15	0.140	277.11658	150.03477	192.38116	279.46164	147.87355	57.35472	
16	0.150	277.11661	150.03458	192.38120	279.46405	147.87334	57.35714	
17	0.160	277.11700	150.03447	192.38223	279.46698	147.87373	57.35935	
18	0.170	277.11771	150.03447	192.38396	279.47000	147.87447	57.36121	
19	0.180	277.11862	150.03459	192.38599	279.47232	147.87511	57.36258	
20	0.190	277.11957	150.03481	192.38788	279.47333	147.87526	57.36337	
21	0.200	277.12027	150.03496	192.38913	279.47266	147.87468	57.36362	
22	0.210	277.12045	150.03496	192.38943	279.47049	147.87338	57.36345	
23	0.220	277.12006	150.03481	192.38884	279.46753	147.87172	57.36298	
24	0.230	277.11942	150.03465	192.38780	279.46448	147.87016	57.36224	
25	0.240	277.11884	150.03461	192.38690	279.46167	147.86893	57.36121	
26	0.250	277.11862	150.03476	192.38651	279.45908	147.86797	57.35979	
27	0.260	277.11887	150.03503	192.38666	279.45670	147.86732	57.35796	
28	0.270	277.11969	150.03540	192.38713	279.45471	147.86707	57.35576	
29	0.280	277.12106	150.03580	192.38782	279.45313	147.86722	57.35331	
30	0.290	277.12296	150.03624	192.38882	279.45209	147.86784	57.35095	
31	0.300	277.12503	150.03673	192.39018	279.45206	147.86896	57.34922	
32	0.310	277.12683	150.03712	192.39160	279.45306	147.87041	57.34832	
33	0.320	277.12799	150.03737	192.39258	279.45490	147.87207	57.34802	
34	0.330	277.12833	150.03740	192.39273	279.45734	147.87390	57.34801	
35	0.340	277.12781	150.03719	192.39178	279.46011	147.87564	57.34834	
36	0.350	277.12643	150.03679	192.38971	279.46274	147.87683	57.34937	
37	0.360	277.12442	150.03625	192.38684	279.46478	147.87703	57.35142	
38	0.370	277.12216	150.03571	192.38379	279.46591	147.87621	57.35422	
39	0.380	277.12021	150.03525	192.38116	279.46582	147.87471	57.35692	
40	0.390	277.11887	150.03505	192.37927	279.46472	147.87315	57.35867	
41	0.400	277.11841	150.03514	192.37813	279.46329	147.87221	57.35908	
42	0.410	277.11856	150.03549	192.37756	279.46225	147.87230	57.35812	
43	0.420	277.11902	150.03595	192.37747	279.46173	147.87352	57.35593	
44	0.430	277.11938	150.03636	192.37778	279.46140	147.87543	57.35282	
45	0.440	277.11954	150.03667	192.37839	279.46094	147.87750	57.34938	
46	0.450	277.11938	150.03683	192.37904	279.46036	147.87927	57.34621	
47	0.460	277.11902	150.03691	192.37949	279.45972	147.88046	57.34369	
48	0.470	277.11859	150.03691	192.37973	279.45911	147.88094	57.34204	
49	0.480	277.11835	150.03679	192.38008	279.45868	147.88078	57.34139	
50	0.490	277.11835	150.03658	192.38086	279.45853	147.88029	57.34174	
51	0.500	277.11874	150.03630	192.38206	279.45880	147.87975	57.34293	
52	0.510	277.11951	150.03610	192.38348	279.45935	147.87923	57.34473	
53	0.520	277.12051	150.03603	192.38480	279.45996	147.87883	57.34669	
54	0.530	277.12161	150.03603	192.38577	279.46057	147.87859	57.34840	
55	0.540	277.12268	150.03609	192.38643	279.46140	147.87845	57.34977	
56	0.550	277.12360	150.03615	192.38669	279.46268	147.87828	57.35109	
57	0.560	277.12402	150.03610	192.38637	279.46469	147.87808	57.35272	
58	0.570	277.12387	150.03587	192.38541	279.46738	147.87798	57.35480	
59	0.580	277.12311	150.03548	192.38383	279.47028	147.87794	57.35723	
60	0.590	277.12180	150.03497	192.38179	279.47269	147.87784	57.35974	
61	0.600	277.12018	150.03447	192.37943	279.47394	147.87762	57.36186	
62	0.610	277.11856	150.03409	192.37689	279.47391	147.87752	57.36314	
63	0.620	277.11713	150.03391	192.37436	279.47281	147.87778	57.36328	
64	0.630	277.11591	150.03394	192.37178	279.47083	147.87852	57.36218	
65	0.640	277.11465	150.03404	192.36903	279.46811	147.87956	57.35995	
66	0.650	277.11325	150.03416	192.36618	279.46484	147.88048	57.35711	
67	0.660	277.11188	150.03418	192.36377	279.46152	147.88104	57.35440	
68	0.670	277.11081	150.03406	192.36243	279.45868	147.88139	57.35240	
69	0.680	277.11014	150.03380	192.36232	279.45679	147.88199	57.35122	
70	0.690	277.10983	150.03348	192.36307	279.45578	147.88332	57.35061	
71	0.700	277.10989	150.03323	192.36426	279.45560	147.88547	57.35037	
72	0.710	277.11023	150.03311	192.36563	279.45612	147.88802	57.35053	
73	0.720	277.11093	150.03311	192.36716	279.45712	147.89029	57.35126	
74	0.730	277.11203	150.03323	192.36890	279.45837	147.89165	57.35273	
75	0.740	277.11337	150.03340	192.37091	279.45966	147.89169	57.35476	
76	0.750	277.11478	150.03355	192.37317	279.46069	147.89053	57.35693	
77	0.760	277.11600	150.03358	192.37541	279.46152	147.88863	57.35877	
78	0.770	277.11679	150.03352	192.37724	279.46228	147.88634	57.36003	
79	0.780	277.11719	150.03343	192.37842	279.46332	147.88390	57.36066	
80	0.790	277.11731	150.03336	192.37892	279.46466	147.88156	57.36061	
81	0.800	277.11722	150.03334	192.37883	279.46582	147.87967	57.35967	
82	0.810	277.11707	150.03339	192.37834	279.46631	147.87842	57.35776	
83	0.820	277.11707	150.03357	192.37784	279.46603	147.87778	57.35523	
84	0.830	277.11740	150.03389	192.37756	279.46503	147.87758	57.35265	
85	0.840	277.11789	150.03427	192.37744	279.46338	147.87769	57.35051	
86	0.850	277.11823	150.03464	192.37717	279.46133	147.87819	57.34919	
87	0.860	277.11826	150.03493	192.37651	279.45908	147.87924	57.34886	
88	0.870	277.11801	150.03513	192.37550	279.45657	147.88087	57.34956	
89	0.880	277.11749	150.03522	192.37418	279.45380	147.88290	57.35126	
90	0.890	277.11679	150.03514	192.37276	279.45108	147.88503	57.35374	
91	0.900	277.11606	150.03490	192.37160	279.44931	147.88681	57.35648	
92	0.910	277.11542	150.03450	192.37108	279.44928	147.88754	57.35886	
93	0.920	277.11499	150.03407	192.37114	279.45108	147.88667	57.36047	
94	0.930	277.11478	150.03372	192.37155	279.45404	147.88443	57.36127	
95	0.940	277.11478	150.03355	192.37198	279.45721	147.88165	57.36137	
96	0.950	277.11487	150.03358	192.37209	279.46005	147.87920	57.36091	
97	0.960	277.11508	150.03378	192.37195	279.46231	147.87756	57.36000	
98	0.970	277.11542	150.03406	192.37186	279.46378	147.87694	57.35871	
99	0.980	277.11584	150.03430	192.37219	279.46451	147.87737	57.35711	
100	0.990	277.11633	150.03439	192.37314	279.46475	147.87862	57.35542	
101	1.000	277.11691	150.03435	192.37459	279.46506	147.88033	57.35401	
